<mxfile host="app.diagrams.net" modified="2024-03-06T02:57:01.081Z" agent="Mozilla/5.0 (Macintosh; Intel Mac OS X 10_15_7) AppleWebKit/537.36 (KHTML, like Gecko) Chrome/122.0.0.0 Safari/537.36" version="24.0.1" etag="iIEnPO-nqH7ornZuWWFp" type="github">
  <diagram name="Page-1" id="SWCDpRBHAf0Qv8lJRJBr">
    <mxGraphModel>
      <root>
        <mxCell id="0" />
        <mxCell id="1" parent="0" />
      </root>
    </mxGraphModel>
  </diagram>
</mxfile>
